<svg width="260" height="72" viewBox="0 0 260 72" fill="none" xmlns="http://www.w3.org/2000/svg">
<g filter="url(#filter0_d_9_94)">
<path d="M6.6 53C5.62833 53 5.1425 52.5142 5.1425 51.5425V19.01C5.1425 18.0383 5.62833 17.5525 6.6 17.5525H20.955C23.65 17.5525 25.685 18.24 27.06 19.615C28.4533 20.9717 29.15 22.97 29.15 25.61V27.095C29.15 29.9733 28.2242 32.0083 26.3725 33.2C29.5808 34.52 31.185 37.38 31.185 41.78V43.5125C31.185 46.6292 30.3783 48.9942 28.765 50.6075C27.17 52.2025 24.805 53 21.67 53H6.6ZM8.03 50.1125H21.67C23.9983 50.1125 25.685 49.59 26.73 48.545C27.775 47.5 28.2975 45.8225 28.2975 43.5125V41.78C28.2975 39.47 27.775 37.8017 26.73 36.775C25.7033 35.7483 24.0167 35.235 21.67 35.235H8.03V50.1125ZM8.03 32.3475H21.3675C23.0358 32.3475 24.2642 31.9258 25.0525 31.0825C25.8592 30.2208 26.2625 28.8917 26.2625 27.095V25.61C26.2625 23.7767 25.8408 22.4567 24.9975 21.65C24.1725 20.8433 22.825 20.44 20.955 20.44H8.03V32.3475ZM61.0839 27.0125C62.0556 27.0125 62.5414 27.4892 62.5414 28.4425V51.5425C62.5414 52.5142 62.0556 53 61.0839 53C60.1306 53 59.6539 52.5142 59.6539 51.5425V48.93C57.9123 51.6433 54.7589 53 50.1939 53H48.6539C45.2256 53 42.7139 52.2025 41.1189 50.6075C39.5423 49.0125 38.7539 46.5008 38.7539 43.0725V28.4425C38.7539 27.4892 39.2306 27.0125 40.1839 27.0125C41.1556 27.0125 41.6414 27.4892 41.6414 28.4425V43.0725C41.6414 45.6942 42.1548 47.5275 43.1814 48.5725C44.2264 49.5992 46.0506 50.1125 48.6539 50.1125H50.1939C53.0356 50.1125 55.2723 49.6542 56.9039 48.7375C58.5356 47.8208 59.4523 46.4183 59.6539 44.53V28.4425C59.6539 27.4892 60.1306 27.0125 61.0839 27.0125ZM78.5108 52.945C76.2558 52.945 74.5324 52.4683 73.3408 51.515C72.1491 50.5433 71.4341 49.0675 71.1958 47.0875C71.1408 46.6108 71.2416 46.2442 71.4983 45.9875C71.7549 45.7125 72.1308 45.575 72.6258 45.575C73.0841 45.575 73.4233 45.6942 73.6433 45.9325C73.8816 46.1708 74.0374 46.5283 74.1108 47.005C74.2758 48.1417 74.6883 48.9392 75.3483 49.3975C76.0266 49.8375 77.0808 50.0575 78.5108 50.0575H87.5308C89.2358 50.0575 90.4091 49.7367 91.0508 49.095C91.6924 48.4533 92.0133 47.28 92.0133 45.575C92.0133 43.8517 91.6924 42.6692 91.0508 42.0275C90.4091 41.3858 89.2358 41.065 87.5308 41.065H78.6208C76.2374 41.065 74.4591 40.4967 73.2858 39.36C72.1308 38.205 71.5533 36.4358 71.5533 34.0525C71.5533 31.6142 72.1308 29.8267 73.2858 28.69C74.4408 27.535 76.2191 26.9575 78.6208 26.9575H87.2558C91.3991 26.9575 93.6999 28.7908 94.1583 32.4575C94.2316 32.9342 94.1308 33.31 93.8558 33.585C93.5991 33.8417 93.2324 33.97 92.7558 33.97C92.2974 33.97 91.9491 33.8508 91.7108 33.6125C91.4908 33.3742 91.3349 33.0258 91.2433 32.5675C91.1149 31.5408 90.7391 30.835 90.1158 30.45C89.5108 30.0467 88.5574 29.845 87.2558 29.845H78.6208C77.0258 29.845 75.9258 30.1383 75.3208 30.725C74.7341 31.3117 74.4408 32.4208 74.4408 34.0525C74.4408 35.6108 74.7433 36.6925 75.3483 37.2975C75.9533 37.8842 77.0441 38.1775 78.6208 38.1775H87.5308C90.0608 38.1775 91.9216 38.7825 93.1133 39.9925C94.3049 41.1842 94.9008 43.045 94.9008 45.575C94.9008 48.0867 94.3049 49.9475 93.1133 51.1575C91.9216 52.3492 90.0608 52.945 87.5308 52.945H78.5108ZM112.726 53C109.298 53 106.786 52.2025 105.191 50.6075C103.596 49.0125 102.798 46.5008 102.798 43.0725V36.8575C102.798 33.4292 103.587 30.9267 105.163 29.35C106.758 27.755 109.279 26.9758 112.726 27.0125H117.236C119.931 27.0125 121.984 27.4708 123.396 28.3875C124.826 29.2858 125.678 30.7067 125.953 32.65C126.008 33.145 125.898 33.5208 125.623 33.7775C125.367 34.0342 125 34.1625 124.523 34.1625C124.083 34.1625 123.753 34.0525 123.533 33.8325C123.313 33.5942 123.148 33.255 123.038 32.815C122.837 31.7517 122.296 31 121.416 30.56C120.536 30.12 119.143 29.9 117.236 29.9H112.726C110.104 29.8633 108.271 30.3583 107.226 31.385C106.199 32.3933 105.686 34.2175 105.686 36.8575V43.0725C105.686 45.6942 106.199 47.5275 107.226 48.5725C108.271 49.5992 110.104 50.1125 112.726 50.1125H117.236C119.143 50.1125 120.536 49.8925 121.416 49.4525C122.296 49.0125 122.837 48.2517 123.038 47.17C123.148 46.73 123.313 46.4 123.533 46.18C123.753 45.9417 124.083 45.8225 124.523 45.8225C125 45.8225 125.367 45.96 125.623 46.235C125.898 46.4917 126.008 46.8583 125.953 47.335C125.678 49.2783 124.826 50.7083 123.396 51.625C121.984 52.5417 119.931 53 117.236 53H112.726ZM171.754 53C168.326 53 165.814 52.2025 164.219 50.6075C162.624 49.0125 161.827 46.5008 161.827 43.0725V36.8575C161.827 33.4292 162.615 30.9267 164.192 29.35C165.787 27.755 168.308 26.9758 171.754 27.0125H176.264C178.959 27.0125 181.013 27.4708 182.424 28.3875C183.854 29.2858 184.707 30.7067 184.982 32.65C185.037 33.145 184.927 33.5208 184.652 33.7775C184.395 34.0342 184.028 34.1625 183.552 34.1625C183.112 34.1625 182.782 34.0525 182.562 33.8325C182.342 33.5942 182.177 33.255 182.067 32.815C181.865 31.7517 181.324 31 180.444 30.56C179.564 30.12 178.171 29.9 176.264 29.9H171.754C169.133 29.8633 167.299 30.3583 166.254 31.385C165.228 32.3933 164.714 34.2175 164.714 36.8575V43.0725C164.714 45.6942 165.228 47.5275 166.254 48.5725C167.299 49.5992 169.133 50.1125 171.754 50.1125H176.264C178.171 50.1125 179.564 49.8925 180.444 49.4525C181.324 49.0125 181.865 48.2517 182.067 47.17C182.177 46.73 182.342 46.4 182.562 46.18C182.782 45.9417 183.112 45.8225 183.552 45.8225C184.028 45.8225 184.395 45.96 184.652 46.235C184.927 46.4917 185.037 46.8583 184.982 47.335C184.707 49.2783 183.854 50.7083 182.424 51.625C181.013 52.5417 178.959 53 176.264 53H171.754ZM196.135 41.12V43.1275C196.135 45.7125 196.648 47.5275 197.675 48.5725C198.72 49.5992 200.553 50.1125 203.175 50.1125H207.685C209.995 50.1125 211.673 49.8192 212.718 49.2325C213.781 48.6275 214.413 47.5917 214.615 46.125C214.688 45.6667 214.835 45.3183 215.055 45.08C215.293 44.8417 215.651 44.7225 216.128 44.7225C216.604 44.7225 216.962 44.86 217.2 45.135C217.457 45.3917 217.558 45.7583 217.503 46.235C217.264 48.545 216.338 50.25 214.725 51.35C213.112 52.45 210.765 53 207.685 53H203.175C199.747 53 197.235 52.2117 195.64 50.635C194.045 49.04 193.248 46.5375 193.248 43.1275V36.9125C193.248 33.4475 194.045 30.9267 195.64 29.35C197.235 27.755 199.747 26.9758 203.175 27.0125H207.685C211.113 27.0125 213.616 27.81 215.193 29.405C216.788 30.9817 217.585 33.4842 217.585 36.9125V39.6625C217.585 40.6342 217.108 41.12 216.155 41.12H196.135ZM203.175 29.9C200.553 29.8633 198.72 30.3675 197.675 31.4125C196.648 32.4392 196.135 34.2725 196.135 36.9125V38.2325H214.698V36.9125C214.698 34.2908 214.184 32.4667 213.158 31.44C212.131 30.4133 210.307 29.9 207.685 29.9H203.175ZM228.587 64C227.616 64 227.13 63.5142 227.13 62.5425V28.4425C227.13 27.4892 227.616 27.0125 228.587 27.0125C229.541 27.0125 230.017 27.4892 230.017 28.4425V30.89C230.842 29.6067 232.025 28.6442 233.565 28.0025C235.105 27.3425 237.076 27.0125 239.477 27.0125H241.567C244.996 27.0125 247.498 27.81 249.075 29.405C250.67 30.9817 251.467 33.4842 251.467 36.9125V43.0725C251.467 46.5008 250.67 49.0125 249.075 50.6075C247.498 52.2025 244.996 53 241.567 53H230.017V62.5425C230.017 63.5142 229.541 64 228.587 64ZM230.017 50.1125H241.567C244.189 50.1125 246.013 49.5992 247.04 48.5725C248.066 47.5275 248.58 45.6942 248.58 43.0725V36.9125C248.58 34.2908 248.066 32.4667 247.04 31.44C246.013 30.4133 244.189 29.9 241.567 29.9H239.477C236.544 29.9 234.289 30.3583 232.712 31.275C231.154 32.1917 230.256 33.6033 230.017 35.51V50.1125Z" fill="black"/>
</g>
<path d="M151 45L144 51L137 45L134 36.5L137 29L144 26L151 29L154 36L151 45Z" fill="#EE5544"/>
<circle cx="144" cy="36" r="4" transform="rotate(180 144 36)" fill="white"/>
<path d="M144 40C146.209 40 148 38.2091 148 36C148 33.7909 146.209 32 144 32C141.791 32 140 33.7909 140 36C140 38.2091 141.791 40 144 40Z" stroke="black" stroke-width="2" stroke-linecap="round" stroke-linejoin="round"/>
<g filter="url(#filter1_d_9_94)">
<path d="M154 36C154 45 144 52 144 52C144 52 134 45 134 36C134 33.3478 135.054 30.8043 136.929 28.9289C138.804 27.0536 141.348 26 144 26C146.652 26 149.196 27.0536 151.071 28.9289C152.946 30.8043 154 33.3478 154 36V36Z" stroke="black" stroke-width="2" stroke-linecap="round" stroke-linejoin="round" shape-rendering="crispEdges"/>
</g>
<defs>
<filter id="filter0_d_9_94" x="5.1425" y="17.5525" width="254.325" height="54.4475" filterUnits="userSpaceOnUse" color-interpolation-filters="sRGB">
<feFlood flood-opacity="0" result="BackgroundImageFix"/>
<feColorMatrix in="SourceAlpha" type="matrix" values="0 0 0 0 0 0 0 0 0 0 0 0 0 0 0 0 0 0 127 0" result="hardAlpha"/>
<feOffset dx="4" dy="4"/>
<feGaussianBlur stdDeviation="2"/>
<feComposite in2="hardAlpha" operator="out"/>
<feColorMatrix type="matrix" values="0 0 0 0 0 0 0 0 0 0 0 0 0 0 0 0 0 0 0.25 0"/>
<feBlend mode="normal" in2="BackgroundImageFix" result="effect1_dropShadow_9_94"/>
<feBlend mode="normal" in="SourceGraphic" in2="effect1_dropShadow_9_94" result="shape"/>
</filter>
<filter id="filter1_d_9_94" x="131" y="25" width="30" height="36" filterUnits="userSpaceOnUse" color-interpolation-filters="sRGB">
<feFlood flood-opacity="0" result="BackgroundImageFix"/>
<feColorMatrix in="SourceAlpha" type="matrix" values="0 0 0 0 0 0 0 0 0 0 0 0 0 0 0 0 0 0 127 0" result="hardAlpha"/>
<feOffset dx="2" dy="4"/>
<feGaussianBlur stdDeviation="2"/>
<feComposite in2="hardAlpha" operator="out"/>
<feColorMatrix type="matrix" values="0 0 0 0 0 0 0 0 0 0 0 0 0 0 0 0 0 0 0.25 0"/>
<feBlend mode="normal" in2="BackgroundImageFix" result="effect1_dropShadow_9_94"/>
<feBlend mode="normal" in="SourceGraphic" in2="effect1_dropShadow_9_94" result="shape"/>
</filter>
</defs>
</svg>
